<svg width="44" height="45" viewBox="0 0 44 45" fill="none" xmlns="http://www.w3.org/2000/svg">
<g filter="url(#filter0_d_3532_11638)">
<path fill-rule="evenodd" clip-rule="evenodd" d="M2 20C2 8.95431 10.9543 0 22 0C33.0457 0 42 8.95431 42 20C42 31.0457 33.0457 40 22 40C10.9543 40 2 31.0457 2 20Z" fill="black"/>
</g>
<path d="M22.3798 9.82747C23.75 8.00886 25.6547 8 25.6547 8C25.6547 8 25.938 9.7098 24.5769 11.3569C23.1235 13.1156 21.4716 12.8278 21.4716 12.8278C21.4716 12.8278 21.1614 11.4446 22.3798 9.82747ZM21.6458 14.0255C22.3508 14.0255 23.6589 13.0498 25.3617 13.0498C28.2927 13.0498 29.4458 15.1501 29.4458 15.1501C29.4458 15.1501 27.1906 16.3113 27.1906 19.1288C27.1906 22.3073 30 23.4026 30 23.4026C30 23.4026 28.0362 28.9692 25.3835 28.9692C24.1652 28.9692 23.218 28.1423 21.9343 28.1423C20.6261 28.1423 19.3279 29 18.4824 29C16.0602 29.0001 13 23.7196 13 19.475C13 15.299 15.5902 13.1082 18.0198 13.1082C19.5991 13.1082 20.8248 14.0255 21.6458 14.0255Z" fill="white"/>
<defs>
<filter id="filter0_d_3532_11638" x="0" y="0" width="44" height="45" filterUnits="userSpaceOnUse" color-interpolation-filters="sRGB">
<feFlood flood-opacity="0" result="BackgroundImageFix"/>
<feColorMatrix in="SourceAlpha" type="matrix" values="0 0 0 0 0 0 0 0 0 0 0 0 0 0 0 0 0 0 127 0" result="hardAlpha"/>
<feOffset dy="3"/>
<feGaussianBlur stdDeviation="1"/>
<feColorMatrix type="matrix" values="0 0 0 0 0 0 0 0 0 0 0 0 0 0 0 0 0 0 0.06 0"/>
<feBlend mode="normal" in2="BackgroundImageFix" result="effect1_dropShadow_3532_11638"/>
<feBlend mode="normal" in="SourceGraphic" in2="effect1_dropShadow_3532_11638" result="shape"/>
</filter>
</defs>
</svg>
